<?xml version="1.0" encoding="UTF-8"?><svg data-noselect="" viewBox="0 0 800 600" width="800" height="600" preserveAspectRatio="none" version="1.1" xmlns="http://www.w3.org/2000/svg" xmlns:xlink="http://www.w3.org/1999/xlink" class="svg-canvas"><defs></defs> <g id="background" data-noselect=""><rect x="0" y="0" fill="#ffffff" width="800" height="600" data-noselect=""></rect> <!----></g> <g id="shape_hZYzn2vcVO" transform="translate(167,169.7930504818078) rotate(0,137.53494405745636,76.18317466942611) scale(1,1)" filter="" style="opacity: 1;"><g><rect fill="rgba(0,0,0,0)" width="295.0698881149127" height="172.36634933885222" x="-10" y="-10"></rect><svg version="1.1" id="图层_1" xmlns="http://www.w3.org/2000/svg" xmlns:xlink="http://www.w3.org/1999/xlink" x="0px" y="0px" width="275.0698881149127" height="152.36634933885222" viewBox="0 0 339.4 188" enable-background="new 0 0 339.4 188" xml:space="preserve" class="style-removed" preserveAspectRatio="none" data-parent="shape_hZYzn2vcVO">
<g>
	<g>
		<g>
			<path fill="#3da3ff" d="M27.1,7.2h7c1.7,0,3.1-1.4,3.1-3.1s-1.4-3.1-3.1-3.1h-7c-1.7,0-3.1,1.4-3.1,3.1S25.3,7.2,27.1,7.2z" stroke-width="0"></path>
      <path fill="#3da3ff" d="M44.9,45c1.7,0,3.1-1.4,3.1-3.1s-1.4-3.1-3.1-3.1H23.7c-1.7,0-3.1,1.4-3.1,3.1S22,45,23.7,45H44.9z" stroke-width="0"></path>
      <path fill="#3da3ff" d="M12.2,158.1c0-1.7-1.4-3.1-3.1-3.1H3.1c-1.7,0-3.1,1.4-3.1,3.1c0,1.7,1.4,3.1,3.1,3.1H9
				C10.7,161.2,12.2,159.8,12.2,158.1z" stroke-width="0"></path>
      <path fill="#3da3ff" d="M70.7,68.3c1.7,0,3.1-1.4,3.1-3.1c0-1.7-1.4-3.1-3.1-3.1h-3.8c-1.7,0-3.1,1.4-3.1,3.1
				c0,1.7,1.4,3.1,3.1,3.1H70.7z" stroke-width="0"></path>
		</g>
	</g>
  <path fill="#3da3ff" d="M339.4,46.4C303.2-10.5,48.5,0.9,48.5,0.9h-1.1c-1.7,0-3.1,1.4-3.1,3.1s1.4,3.1,3.1,3.1h14.1
		c1.7,0,3.1,1.4,3.1,3.1c0,1.7-1.4,3.1-3.1,3.1H14.5c-1.7,0-3.1,1.4-3.1,3.1s1.4,3.1,3.1,3.1h29.7c1.7,0,3.1,1.4,3.1,3.1
		c0,1.7-1.4,3.1-3.1,3.1h-13c-1.7,0-3.1,1.4-3.1,3.1s1.4,3.1,3.1,3.1h45.7c1.7,0,3.1,1.4,3.1,3.1s-1.4,3.1-3.1,3.1H55.5
		c-1.7,0-3.1,1.4-3.1,3.1c0,1.7,1.4,3.1,3.1,3.1h64.1c11,0.6,21.3-0.9,29.5-4.3c27.2-11.3,46.7-13.1,46.7-13.1
		C158.5,17,95.8,9.7,73,7.3c0,0,0-0.1,0-0.1h12.8c120.6,5.1,136,18.9,136,18.9S173.1,34.7,119.4,62H79.3c-1.7,0-3.1,1.4-3.1,3.1
		c0,1.7,1.4,3.1,3.1,3.1h10.9c1.7,0,3.1,1.4,3.1,3.1c0,1.7-1.4,3.1-3.1,3.1H57.4c-1.7,0-3.1,1.4-3.1,3.1c0,1.7,1.4,3.1,3.1,3.1h15.4
		c1.7,0,3.1,1.4,3.1,3.1s-1.4,3.1-3.1,3.1H50.2c-1.7,0-3.1,1.4-3.1,3.1c0,1.7,1.4,3.1,3.1,3.1h8.7c8.1,10.8,24.6,9,24.6,9
		c-7.6,6.5-15.9,7.4-15.9,7.4c-7.1,6.9-13.5,13.6-19.4,19.9H21.9c-1.7,0-3.1,1.4-3.1,3.1v0c0,1.7,1.4,3.1,3.1,3.1h23.5
		c1.7,0,3.1,1.4,3.1,3.1s-1.4,3.1-3.1,3.1h-35c-1.7,0-3.1,1.4-3.1,3.1s1.4,3.1,3.1,3.1h25.4c1.7,0,3.1,1.4,3.1,3.1s-1.4,3.1-3.1,3.1
		h-13c-1.7,0-3.1,1.4-3.1,3.1c0,1.6,1.2,2.9,2.7,3.1C10.2,177.6,4.7,188,4.7,188c137.8-87.9,211.2-73.3,211.2-73.3
		c-9.6-12.9-44.1-12.5-44.1-12.5c25.5-8.8,80.1-7.3,80.1-7.3c2.4-4.6,6.3-5.6,6.3-5.6s-8.9,15.5,1.8,17.1
		C276.9,107,293.7,85,286.2,77c-7.5-8.1-34.7,3.2-34.7,3.2l10.7-12.3L256,54.8l9.5,9.7C324.7,68.5,339.4,46.4,339.4,46.4z
		 M298.2,35.9l-8.5,1.4c-4.3-3.3-12.2-7-12.2-7C290.7,31.4,298.2,35.9,298.2,35.9z" stroke-width="0"></path>
</g>
</svg></g></g><g id="shape_DywFgdwcjR" transform="translate(93.17595682187002,-113.90658695337004) rotate(0,325.65999999999997,446.64000000000004) scale(1,1)" filter="" style="opacity: 1;"><g><svg xmlns="http://www.w3.org/2000/svg" version="1.1" xmlns:xlink="http://www.w3.org/1999/xlink" width="895.64" height="893.2800000000002" viewBox="0 0 895.64 893.2800000000002" data-parent="shape_DywFgdwcjR"><g data-width="406.54848000000004" transform="translate(122.16, 0)"><path d="M10.75-76.47L38.97-76.47L28.34-7.33L6.11-7.33L14.29-71.83L10.75-76.47Z" transform="translate(0 488.64000000000004) " fill="#3DA3FF" stroke="#3DA3FF" stroke-width="0.204" data-glyph-w="45.077040000000004" data-glyph-h="158.808" data-glyph-ascender="122.16000000000001" data-glyph-descender="-36.648"></path><path d="M13.93-76.47L79.65-76.47Q81.36-76.47 82.82-75.86Q84.29-75.25 85.33-74.15Q86.37-73.05 86.73-71.59Q87.10-70.12 86.61-68.29L86.61-68.29L78.43-7.33L12.70-7.33Q10.99-7.33 9.53-7.94Q8.06-8.55 7.02-9.65Q5.99-10.75 5.62-12.28Q5.25-13.80 5.74-15.51L5.74-15.51L13.93-76.47ZM63.16-64.74L35.06-64.74L29.20-19.06L56.19-19.06L63.16-64.74Z" transform="translate(45.077040000000004 488.64000000000004) " fill="#3DA3FF" stroke="#3DA3FF" stroke-width="0.204" data-glyph-w="92.35296000000001" data-glyph-h="158.808" data-glyph-ascender="122.16000000000001" data-glyph-descender="-36.648"></path><path d="M46.54-7.33L23.09-7.33L31.27-64.74L5.50-64.74L6.72-76.47L81.73-76.47L79.40-64.74L54.73-64.74L46.54-7.33Z" transform="translate(137.43 488.64000000000004) " fill="#3DA3FF" stroke="#3DA3FF" stroke-width="0.204" data-glyph-w="87.22224" data-glyph-h="158.808" data-glyph-ascender="122.16000000000001" data-glyph-descender="-36.648"></path><path d="M13.93-76.47L79.65-76.47Q81.36-76.47 82.82-75.86Q84.29-75.25 85.33-74.15Q86.37-73.05 86.73-71.59Q87.10-70.12 86.61-68.29L86.61-68.29L78.43-7.33L12.70-7.33Q10.99-7.33 9.53-7.94Q8.06-8.55 7.02-9.65Q5.99-10.75 5.62-12.28Q5.25-13.80 5.74-15.51L5.74-15.51L13.93-76.47ZM63.16-64.74L35.06-64.74L29.20-19.06L56.19-19.06L63.16-64.74Z" transform="translate(224.65224 488.64000000000004) " fill="#3DA3FF" stroke="#3DA3FF" stroke-width="0.204" data-glyph-w="92.35296000000001" data-glyph-h="158.808" data-glyph-ascender="122.16000000000001" data-glyph-descender="-36.648"></path><path d="M11.36-21.38L53.63-21.38L55.95-35.43L9.04-35.43L14.90-76.47L84.05-76.47L81.73-56.56L58.27-56.56L59.49-64.74L37.14-64.74L33.59-47.15L80.50-47.15L75.86-15.51Q75.86-13.80 75.07-12.28Q74.27-10.75 72.93-9.65Q71.59-8.55 69.94-7.94Q68.29-7.33 66.46-7.33L66.46-7.33L5.50-7.33L7.82-26.14L11.36-21.38Z" transform="translate(317.0052 488.64000000000004) " fill="#3DA3FF" stroke="#3DA3FF" stroke-width="0.204" data-glyph-w="89.54328000000001" data-glyph-h="158.808" data-glyph-ascender="122.16000000000001" data-glyph-descender="-36.648"></path></g></svg></g></g></svg>
